<svg xmlns="http://www.w3.org/2000/svg" viewBox="0 0 200 200" width="200" height="200">
  <defs>
    <radialGradient id="ng" cx="50%" cy="50%" r="50%">
      <stop offset="0%" stop-color="#C4654A" stop-opacity="0.15"/>
      <stop offset="100%" stop-color="#C4654A" stop-opacity="0"/>
    </radialGradient>
    <radialGradient id="cg" cx="50%" cy="50%" r="50%">
      <stop offset="0%" stop-color="#6B8FAD" stop-opacity="0.12"/>
      <stop offset="100%" stop-color="#6B8FAD" stop-opacity="0"/>
    </radialGradient>
  </defs>

  <g transform="translate(72, 100)">
    <!-- Connections -->
    <line x1="0" y1="0" x2="52" y2="-70" stroke="#C4654A" stroke-width="2.2" stroke-opacity="0.35"/>
    <line x1="0" y1="0" x2="80" y2="0" stroke="#7BA3BE" stroke-width="1.8" stroke-opacity="0.4"/>
    <line x1="0" y1="0" x2="52" y2="70" stroke="#C4654A" stroke-width="2.2" stroke-opacity="0.35"/>
    <path d="M 52 -70 Q -50 -60, 0 0 Q -50 60, 52 70" fill="none" stroke="#C4654A" stroke-width="1.8" stroke-opacity="0.3"/>

    <!-- Scatter lines -->
    <line x1="52" y1="-70" x2="82" y2="-92" stroke="#C4654A" stroke-width="1" stroke-opacity="0.25"/>
    <line x1="52" y1="-70" x2="88" y2="-78" stroke="#C4654A" stroke-width="1" stroke-opacity="0.25"/>
    <line x1="80" y1="0" x2="108" y2="-10" stroke="#7BA3BE" stroke-width="0.9" stroke-opacity="0.22"/>
    <line x1="80" y1="0" x2="108" y2="10" stroke="#7BA3BE" stroke-width="0.9" stroke-opacity="0.22"/>
    <line x1="52" y1="70" x2="82" y2="92" stroke="#C4654A" stroke-width="1" stroke-opacity="0.25"/>
    <line x1="52" y1="70" x2="88" y2="78" stroke="#C4654A" stroke-width="1" stroke-opacity="0.25"/>
    <line x1="0" y1="0" x2="-38" y2="-16" stroke="#C4654A" stroke-width="1" stroke-opacity="0.22"/>
    <line x1="0" y1="0" x2="-34" y2="20" stroke="#C4654A" stroke-width="1" stroke-opacity="0.22"/>

    <!-- Scatter dots -->
    <circle cx="86" cy="-95" r="2.2" fill="#C4654A" opacity="0.3"/>
    <circle cx="92" cy="-80" r="1.6" fill="#C4654A" opacity="0.25"/>
    <circle cx="112" cy="-12" r="1.6" fill="#7BA3BE" opacity="0.25"/>
    <circle cx="112" cy="12" r="1.3" fill="#7BA3BE" opacity="0.2"/>
    <circle cx="86" cy="95" r="2.2" fill="#C4654A" opacity="0.3"/>
    <circle cx="92" cy="80" r="1.6" fill="#C4654A" opacity="0.25"/>
    <circle cx="-42" cy="-18" r="1.6" fill="#C4654A" opacity="0.22"/>
    <circle cx="-38" cy="23" r="1.6" fill="#C4654A" opacity="0.22"/>

    <!-- Glows -->
    <circle cx="0" cy="0" r="32" fill="url(#ng)"/>
    <circle cx="52" cy="-70" r="24" fill="url(#ng)"/>
    <circle cx="80" cy="0" r="20" fill="url(#cg)"/>
    <circle cx="52" cy="70" r="24" fill="url(#ng)"/>

    <!-- Main node -->
    <circle cx="0" cy="0" r="16" fill="#E8DDD8" stroke="#C4654A" stroke-width="2.2"/>
    <circle cx="0" cy="0" r="7" fill="#C4654A"/>
    <circle cx="0" cy="0" r="3" fill="#8B3D2E"/>

    <!-- Top node -->
    <circle cx="52" cy="-70" r="12.5" fill="#E8DDD8" stroke="#C4654A" stroke-width="2"/>
    <circle cx="52" cy="-70" r="5" fill="#C4654A"/>
    <circle cx="52" cy="-70" r="2.2" fill="#8B3D2E"/>

    <!-- Center-right node -->
    <circle cx="80" cy="0" r="10" fill="#E8F0F5" stroke="#7BA3BE" stroke-width="1.8"/>
    <circle cx="80" cy="0" r="4" fill="#7BA3BE"/>
    <circle cx="80" cy="0" r="1.8" fill="#4A7A96"/>

    <!-- Bottom node -->
    <circle cx="52" cy="70" r="12.5" fill="#E8DDD8" stroke="#C4654A" stroke-width="2"/>
    <circle cx="52" cy="70" r="5" fill="#C4654A"/>
    <circle cx="52" cy="70" r="2.2" fill="#8B3D2E"/>
  </g>
</svg>
